<svg width="300" height="307" viewBox="0 0 300 307" fill="none" xmlns="http://www.w3.org/2000/svg">
<path fill-rule="evenodd" clip-rule="evenodd" d="M291.299 104.656H265.759V281.099C265.759 282.239 265.306 283.332 264.5 284.138C263.694 284.944 262.601 285.397 261.461 285.397C260.321 285.397 259.228 284.944 258.422 284.138C257.616 283.332 257.163 282.239 257.163 281.099L257.177 16.2567C257.132 12.201 255.68 8.2867 253.069 5.1826C250.862 2.60927 247.946 0.888064 244.697 0.888064H13.1179C11.3964 0.88692 9.69179 1.22718 8.10268 1.88916C6.51358 2.55114 5.07153 3.5217 3.85999 4.74466C1.48357 7.12109 0 10.4073 0 14.0025V293.287C0 296.896 1.47338 300.168 3.85999 302.545C6.31248 305.007 9.64261 306.394 13.1179 306.401V306.415H277.709V306.401C283.833 306.401 289.405 303.896 293.448 299.849C297.491 295.802 300 290.238 300 284.11V113.344C299.998 112.202 299.77 111.072 299.331 110.019C298.892 108.965 298.249 108.008 297.44 107.203C296.635 106.393 295.679 105.75 294.625 105.31C293.571 104.871 292.441 104.644 291.299 104.643V104.656ZM220.376 47.5407V70.5479H36.7871V47.5407H220.376ZM32.4891 38.9482H224.671C227.047 38.9482 228.969 40.8697 228.969 43.2428V74.8458C228.969 77.2222 227.044 79.1438 224.671 79.1438H32.5027C30.1263 79.1438 28.2048 77.2188 28.2048 74.8458V43.2428C28.2048 40.8697 30.1297 38.9482 32.5027 38.9482H32.4891ZM156.64 118.09C155.501 118.09 154.408 117.637 153.603 116.832C152.797 116.026 152.344 114.933 152.344 113.794C152.344 112.654 152.797 111.562 153.603 110.756C154.408 109.95 155.501 109.498 156.64 109.498H224.671C225.81 109.498 226.902 109.95 227.707 110.755C228.513 111.561 228.965 112.653 228.965 113.792C228.965 114.931 228.513 116.023 227.707 116.829C226.902 117.634 225.81 118.087 224.671 118.087L156.64 118.09ZM32.4891 109.178H126.67C129.047 109.178 130.968 111.1 130.968 113.473V176.53C130.968 178.906 129.043 180.828 126.67 180.828L32.5027 180.814C30.1263 180.814 28.2048 178.893 28.2048 176.516V113.463C28.2048 111.09 30.1297 109.168 32.5027 109.168L32.4891 109.178ZM156.64 149.452C155.501 149.452 154.408 148.999 153.603 148.194C152.797 147.388 152.344 146.295 152.344 145.156C152.344 144.016 152.797 142.924 153.603 142.118C154.408 141.312 155.501 140.86 156.64 140.86H224.671C225.81 140.86 226.902 141.312 227.707 142.117C228.513 142.923 228.965 144.015 228.965 145.154C228.965 146.293 228.513 147.385 227.707 148.191C226.902 148.996 225.81 149.449 224.671 149.449L156.64 149.452ZM156.64 180.814C155.501 180.814 154.408 180.361 153.603 179.556C152.797 178.75 152.344 177.657 152.344 176.518C152.344 175.378 152.797 174.286 153.603 173.48C154.408 172.674 155.501 172.222 156.64 172.222H224.671C225.81 172.222 226.903 172.674 227.709 173.48C228.514 174.286 228.967 175.378 228.967 176.518C228.967 177.657 228.514 178.75 227.709 179.556C226.903 180.361 225.81 180.814 224.671 180.814H156.64ZM32.4891 212.176C31.3502 212.176 30.2578 211.724 29.4524 210.918C28.6471 210.113 28.1946 209.021 28.1946 207.882C28.1946 206.743 28.6471 205.65 29.4524 204.845C30.2578 204.039 31.3502 203.587 32.4891 203.587H224.671C225.81 203.587 226.902 204.039 227.707 204.845C228.513 205.65 228.965 206.743 228.965 207.882C228.965 209.021 228.513 210.113 227.707 210.918C226.902 211.724 225.81 212.176 224.671 212.176H32.4891ZM32.4891 243.541C31.3493 243.541 30.2561 243.089 29.45 242.283C28.644 241.477 28.1912 240.383 28.1912 239.244C28.1912 238.104 28.644 237.01 29.45 236.204C30.2561 235.398 31.3493 234.946 32.4891 234.946H224.671C225.811 234.946 226.904 235.398 227.71 236.204C228.516 237.01 228.969 238.104 228.969 239.244C228.969 240.383 228.516 241.477 227.71 242.283C226.904 243.089 225.811 243.541 224.671 243.541H32.4891ZM32.4891 274.903C31.3497 274.903 30.2569 274.451 29.4512 273.645C28.6455 272.839 28.1929 271.747 28.1929 270.607C28.1929 269.468 28.6455 268.375 29.4512 267.569C30.2569 266.764 31.3497 266.311 32.4891 266.311H224.671C225.81 266.311 226.903 266.764 227.709 267.569C228.514 268.375 228.967 269.468 228.967 270.607C228.967 271.747 228.514 272.839 227.709 273.645C226.903 274.451 225.81 274.903 224.671 274.903H32.4891ZM122.386 154.225V172.218H36.7837V163.337L63.3453 145.113L83.1579 161.809C83.587 162.171 84.0831 162.444 84.6178 162.614C85.1525 162.783 85.7154 162.846 86.2744 162.798C86.8333 162.75 87.3773 162.593 87.8754 162.334C88.3734 162.076 88.8157 161.722 89.1771 161.293C89.5384 160.864 89.8117 160.368 89.9813 159.833C90.1509 159.299 90.2136 158.736 90.1657 158.177C90.1178 157.618 89.9602 157.074 89.702 156.576C89.4439 156.078 89.0902 155.636 88.661 155.274L81.9901 149.649L95.1215 141.416L122.4 154.239L122.386 154.225ZM75.1222 143.854L66.5942 136.667C65.8858 135.975 64.9598 135.55 63.9734 135.463C62.9869 135.376 62.0009 135.634 61.1828 136.192L36.7837 152.928V117.74H122.386V144.767L96.6323 132.661C95.9858 132.361 95.2748 132.227 94.5635 132.271C93.8522 132.314 93.1631 132.535 92.5584 132.912L75.1222 143.84V143.854Z" fill="#63B5CF"/>
</svg>
