<svg width="434" height="113" viewBox="0 0 434 113" fill="none" xmlns="http://www.w3.org/2000/svg">
<g clip-path="url(#clip0_1032_10)">
<path d="M161.903 49.0325L161.435 41.974C159.909 41.3701 158.253 40.8182 156.461 40.3117C154.662 39.8117 152.864 39.5584 151.052 39.5584C148.87 39.5584 146.76 39.9675 144.721 40.7857C142.688 41.6039 140.864 42.7468 139.253 44.2078C137.675 45.6753 136.409 47.4091 135.442 49.4221C134.481 51.4286 134 53.6299 134 56.0065C134 58.6493 134.416 61.0325 135.253 63.1558C136.084 65.2792 137.26 67.1039 138.779 68.6234C140.305 70.1493 142.11 71.3182 144.208 72.1364C146.305 72.9545 148.63 73.3636 151.182 73.3636C151.929 73.3636 152.76 73.3052 153.682 73.1883C154.597 73.0779 155.519 72.9026 156.435 72.6753C157.325 72.474 158.162 72.2273 158.935 71.9416C159.708 71.6558 160.344 71.3506 160.831 71.039L162.032 63.6753H160.266C159.838 65.9416 158.935 67.8182 157.558 69.2922C156.175 70.7727 154.325 71.513 152 71.513C150.104 71.513 148.318 71.1364 146.643 70.3896C144.961 69.6429 143.506 68.5974 142.266 67.2468C141.032 65.8701 140.058 64.2208 139.344 62.2987C138.623 60.3701 138.266 58.2338 138.266 55.8831C138.266 53.7532 138.597 51.8117 139.253 50.0455C139.916 48.2792 140.818 46.7662 141.968 45.5C143.143 44.2403 144.526 43.2532 146.104 42.5519C147.682 41.8506 149.403 41.5 151.266 41.5C153.883 41.5 155.935 42.0909 157.429 43.2857C158.922 44.474 159.883 46.3896 160.312 49.0325H161.903ZM176.11 66.9026L178.305 60.6623H188.513L190.578 66.8182C190.864 67.7338 191.065 68.474 191.182 69.0325C191.299 69.5974 191.266 70.0195 191.097 70.3052C190.922 70.6234 190.584 70.8312 190.084 70.9286C189.578 71.0325 188.87 71.0779 187.948 71.0779V72.6299C188.643 72.6299 189.487 72.6234 190.494 72.6104C191.494 72.5974 192.545 72.5909 193.636 72.5909C194.695 72.5909 195.74 72.5974 196.76 72.6104C197.779 72.6234 198.63 72.6299 199.318 72.6299V71.1234C198.571 71.0649 197.948 70.9675 197.448 70.8247C196.942 70.6818 196.506 70.4351 196.13 70.0909C195.76 69.7727 195.429 69.3442 195.143 68.7987C194.857 68.2532 194.571 67.5519 194.279 66.6883L184.935 39H183.26L173.656 66.6039C173.338 67.4351 173.052 68.1299 172.792 68.6883C172.532 69.2532 172.234 69.7013 171.89 70.0455C171.545 70.3896 171.13 70.6364 170.643 70.7792C170.149 70.9221 169.519 70.9935 168.747 70.9935V72.6299C169.435 72.6299 170.234 72.6234 171.136 72.6104C172.039 72.5974 172.968 72.5909 173.916 72.5909C174.864 72.5909 175.786 72.5974 176.688 72.6104C177.597 72.6234 178.39 72.6299 179.078 72.6299V71.0779C177.188 71.0779 176.091 70.7468 175.786 70.0714C175.487 69.3961 175.591 68.3377 176.11 66.9026ZM187.909 58.7208H178.955L183.474 45.5909L187.909 58.7208ZM239.234 56.3117C239.234 54.0974 238.812 51.9805 237.981 49.961C237.149 47.9351 236 46.1493 234.539 44.5974C233.104 43.0779 231.416 41.8571 229.481 40.9351C227.539 40.0195 225.481 39.5584 223.299 39.5584C220.89 39.5584 218.682 40.0584 216.688 41.0455C214.695 42.039 212.994 43.3377 211.584 44.9416C210.182 46.5519 209.091 48.3701 208.312 50.4091C207.539 52.4481 207.149 54.5325 207.149 56.6558C207.149 58.8961 207.565 61.026 208.396 63.0519C209.234 65.0714 210.377 66.8442 211.844 68.3701C213.279 69.8896 214.974 71.1039 216.922 72.0065C218.877 72.9091 220.961 73.3636 223.169 73.3636C225.578 73.3636 227.773 72.8766 229.734 71.8961C231.701 70.9221 233.39 69.6299 234.799 68.026C236.201 66.4416 237.292 64.6299 238.071 62.5779C238.844 60.526 239.234 58.4351 239.234 56.3117ZM234.708 57.6039C234.708 59.6429 234.461 61.513 233.955 63.2208C233.455 64.9286 232.727 66.4026 231.779 67.6364C230.831 68.8701 229.682 69.8247 228.318 70.5C226.955 71.1753 225.409 71.513 223.688 71.513C221.649 71.513 219.877 70.9935 218.37 69.961C216.864 68.9286 215.604 67.6104 214.597 66C213.597 64.4221 212.851 62.6753 212.364 60.7662C211.87 58.8571 211.63 57.0455 211.63 55.3182C211.63 53.3117 211.896 51.461 212.422 49.7662C212.955 48.0714 213.727 46.6104 214.727 45.3701C215.708 44.1688 216.877 43.2208 218.24 42.5325C219.604 41.8442 221.104 41.5 222.74 41.5C224.747 41.5 226.506 42.0195 228.013 43.0714C229.519 44.1169 230.76 45.4286 231.74 47.0065C232.74 48.6169 233.487 50.3636 233.981 52.2403C234.468 54.1234 234.708 55.9091 234.708 57.6039ZM248.136 64.6623L249.169 71.8961C250.292 72.4156 251.39 72.7922 252.468 73.0195C253.545 73.2468 254.74 73.3636 256.058 73.3636C257.383 73.3636 258.688 73.1623 259.981 72.7597C261.273 72.3571 262.422 71.7532 263.422 70.9545C264.429 70.1753 265.247 69.1948 265.877 68C266.513 66.8117 266.825 65.4286 266.825 63.8442C266.825 62.6104 266.617 61.5519 266.201 60.6623C265.786 59.7727 265.234 58.9935 264.545 58.3377C263.883 57.6753 263.123 57.0909 262.26 56.5909C261.403 56.0909 260.539 55.6104 259.682 55.1493C258.76 54.7208 257.864 54.2468 256.987 53.7273C256.11 53.2078 255.331 52.6234 254.643 51.961C253.955 51.3312 253.39 50.6169 252.961 49.8312C252.532 49.039 252.318 48.1429 252.318 47.1364C252.318 45.5584 252.812 44.2273 253.799 43.1364C254.792 42.0455 256.279 41.5 258.26 41.5C259.805 41.5 260.981 41.9156 261.766 42.7468C262.558 43.5779 263.078 44.8442 263.338 46.539H265.188L264.37 40.2468C263.883 40.1948 263.422 40.1169 262.994 40.0325C262.565 39.9481 262.136 39.8766 261.701 39.8182C261.273 39.7597 260.825 39.7013 260.37 39.6494C259.909 39.5909 259.422 39.5584 258.903 39.5584C257.526 39.5584 256.234 39.7532 255.026 40.1429C253.825 40.526 252.792 41.0974 251.929 41.8442C251.039 42.6169 250.344 43.5779 249.838 44.7273C249.338 45.8766 249.084 47.2273 249.084 48.7727C249.084 50.0974 249.318 51.2338 249.773 52.2013C250.234 53.1623 250.825 54.013 251.539 54.7597C252.26 55.4805 253.065 56.1039 253.955 56.6364C254.844 57.1623 255.714 57.6623 256.578 58.1169C257.409 58.6104 258.214 59.0844 258.987 59.539C259.766 60 260.455 60.5 261.058 61.0455C261.662 61.6234 262.149 62.2727 262.519 63.0065C262.896 63.7403 263.078 64.6104 263.078 65.6104C263.078 67.3052 262.448 68.7143 261.188 69.8312C259.922 70.9545 258.299 71.513 256.318 71.513C255.286 71.513 254.409 71.3247 253.695 70.9545C252.974 70.5779 252.37 70.0779 251.883 69.4416C251.396 68.8117 251 68.0779 250.701 67.2468C250.396 66.4156 250.162 65.5519 249.987 64.6623H248.136ZM323.227 73.1039V45.974C323.227 45.0584 323.26 44.3247 323.331 43.7792C323.403 43.2338 323.584 42.8312 323.87 42.5714C324.156 42.2857 324.578 42.1039 325.143 42.013C325.701 41.9286 326.468 41.8831 327.442 41.8831V40.2468C326.929 40.2792 326.162 40.2987 325.143 40.3117C324.123 40.3312 323.052 40.3377 321.935 40.3377C320.812 40.3377 319.734 40.3312 318.701 40.3117C317.669 40.2987 316.883 40.2792 316.338 40.2468V41.8831C317.253 41.9156 317.993 41.9805 318.552 42.0779C319.11 42.1818 319.539 42.3766 319.825 42.6623C320.136 42.9481 320.344 43.3571 320.448 43.8896C320.545 44.4156 320.597 45.1169 320.597 45.974V66.6883L298.766 40.2922C298.448 40.3182 297.961 40.3442 297.299 40.3571C296.643 40.3701 295.935 40.3766 295.195 40.3766H293.039C292.351 40.3766 291.831 40.3506 291.487 40.2922V41.8831C293.526 41.8831 294.961 42.1623 295.792 42.7273C296.63 43.2857 297.045 44.3831 297.045 46.0195V66.7727C297.045 67.7532 296.974 68.5195 296.831 69.0779C296.682 69.6364 296.429 70.0779 296.052 70.3896C295.708 70.6818 295.227 70.8636 294.61 70.9545C293.994 71.039 293.208 71.0779 292.266 71.0779V72.6753C292.955 72.6429 293.805 72.6234 294.825 72.6104C295.844 72.5974 296.903 72.5909 297.993 72.5909C299.084 72.5909 300.136 72.5974 301.156 72.6104C302.175 72.6234 303.045 72.6299 303.76 72.6299V71.0779C302.87 71.0779 302.156 71.0455 301.61 70.974C301.065 70.9026 300.649 70.7078 300.357 70.3896C300.045 70.1039 299.838 69.6753 299.734 69.0974C299.636 68.526 299.584 67.7338 299.584 66.7338V46.2792L321.247 73.1039H323.227ZM342.123 54.7597V42.1429H348.019C349.169 42.1429 350.104 42.2078 350.818 42.3377C351.539 42.4675 352.097 42.7208 352.5 43.0909C352.929 43.4935 353.24 44.0519 353.429 44.7727C353.61 45.487 353.779 46.4481 353.922 47.6558H355.643V40.3377C354.039 40.3896 352.312 40.4286 350.474 40.4416C348.636 40.4545 346.773 40.4675 344.877 40.4675C342.981 40.4675 341.104 40.4545 339.24 40.4416C337.37 40.4286 335.604 40.3961 333.942 40.3377V41.9286C334.831 41.9286 335.558 41.974 336.117 42.0584C336.675 42.1429 337.11 42.3182 337.429 42.5714C337.714 42.8312 337.916 43.2143 338.032 43.7143C338.149 44.2208 338.201 44.9026 338.201 45.7597V66.8636C338.201 67.7208 338.149 68.4351 338.032 68.9935C337.916 69.5519 337.714 69.974 337.429 70.2597C337.11 70.5779 336.675 70.7922 336.117 70.9091C335.558 71.026 334.831 71.0779 333.942 71.0779V72.6299C335.662 72.6039 337.487 72.5779 339.409 72.5649C341.331 72.5519 343.286 72.5455 345.266 72.5455C347.273 72.5455 349.273 72.5519 351.253 72.5649C353.234 72.5779 355.143 72.6039 356.981 72.6299C357.234 71.4805 357.558 70.2403 357.948 68.9091C358.338 67.5714 358.714 66.3182 359.091 65.1364H357.195C356.851 66.2857 356.5 67.2273 356.136 67.961C355.779 68.6883 355.344 69.2597 354.825 69.6623C354.338 70.0909 353.727 70.3831 352.994 70.5455C352.266 70.7013 351.351 70.7792 350.26 70.7792H347.071C346.013 70.7792 345.156 70.7468 344.513 70.6688C343.864 70.5974 343.357 70.4221 342.981 70.1364C342.636 69.8442 342.409 69.4416 342.292 68.9286C342.182 68.4091 342.123 67.7208 342.123 66.8636V57.0455H348.234C348.812 57.0455 349.286 57.0909 349.656 57.1948C350.032 57.2922 350.318 57.5 350.519 57.8182C350.721 58.1364 350.857 58.5779 350.929 59.1558C351 59.7273 351.039 60.487 351.039 61.4351H352.799V50.7987H351.039C351.039 52.4351 350.838 53.5065 350.435 54.0065C350.032 54.5065 349.312 54.7597 348.279 54.7597H342.123ZM381.864 73.3636L387.974 59.974L393.662 73.3636H395.253L405.37 45.974C405.662 45.0844 405.903 44.3766 406.104 43.8442C406.305 43.3117 406.506 42.9026 406.708 42.6169C406.935 42.3312 407.208 42.1364 407.526 42.039C407.844 41.9351 408.273 41.8831 408.818 41.8831V40.2468C408.5 40.2792 407.981 40.2987 407.247 40.3117C406.513 40.3312 405.734 40.3377 404.903 40.3377H402.422C401.636 40.3377 401.039 40.3052 400.636 40.2468V41.8831C401.409 41.9156 402.019 41.974 402.468 42.0584C402.909 42.1429 403.208 42.3182 403.351 42.5714C403.519 42.8636 403.558 43.2662 403.455 43.7792C403.357 44.2987 403.149 44.987 402.831 45.8442L394.993 67.1169L390.13 55.2338L394.519 45.6753C394.922 44.7857 395.403 43.9286 395.961 43.1104C396.526 42.2922 397.364 41.8831 398.481 41.8831V40.2468C398.136 40.2792 397.571 40.2987 396.779 40.3117C395.993 40.3312 395.156 40.3377 394.266 40.3377H391.636C390.805 40.3377 390.175 40.3052 389.74 40.2468V41.8831C391.377 41.8831 392.318 42.1299 392.565 42.6169C392.805 43.1039 392.61 44.0844 391.981 45.5455L388.922 52.2208L386.084 45.3312C385.448 43.8377 385.24 42.8896 385.455 42.487C385.675 42.0844 386.429 41.8831 387.721 41.8831V40.2468C387.318 40.3052 386.643 40.3442 385.695 40.3571C384.747 40.3701 383.727 40.3766 382.636 40.3766C381.545 40.3766 380.494 40.3701 379.474 40.3571C378.455 40.3442 377.669 40.3052 377.123 40.2468V41.8831C378.591 41.8831 379.617 42.1623 380.201 42.7273C380.792 43.2857 381.357 44.2273 381.903 45.5455L386.727 57L381.903 67.5909L373.078 45.2013C372.474 43.7922 372.331 42.8896 372.649 42.487C372.961 42.0844 373.812 41.8831 375.188 41.8831V40.2468C374.753 40.2792 374.032 40.2987 373.013 40.3117C371.993 40.3312 370.909 40.3377 369.76 40.3377H366.448C365.383 40.3377 364.61 40.3052 364.123 40.2468V41.8831C364.922 41.8831 365.571 41.9545 366.058 42.1039C366.545 42.2468 366.961 42.448 367.305 42.7013C367.623 42.9935 367.896 43.3636 368.123 43.8247C368.357 44.2792 368.61 44.8247 368.903 45.461L380.227 73.3636H381.864ZM415.312 64.6623L416.344 71.8961C417.468 72.4156 418.565 72.7922 419.643 73.0195C420.721 73.2468 421.916 73.3636 423.24 73.3636C424.558 73.3636 425.864 73.1623 427.156 72.7597C428.448 72.3571 429.597 71.7532 430.604 70.9545C431.604 70.1753 432.422 69.1948 433.058 68C433.688 66.8117 434 65.4286 434 63.8442C434 62.6104 433.792 61.5519 433.377 60.6623C432.961 59.7727 432.409 58.9935 431.721 58.3377C431.058 57.6753 430.299 57.0909 429.435 56.5909C428.578 56.0909 427.714 55.6104 426.857 55.1493C425.935 54.7208 425.039 54.2468 424.162 53.7273C423.286 53.2078 422.506 52.6234 421.818 51.961C421.13 51.3312 420.565 50.6169 420.136 49.8312C419.708 49.039 419.494 48.1429 419.494 47.1364C419.494 45.5584 419.987 44.2273 420.974 43.1364C421.968 42.0455 423.455 41.5 425.435 41.5C426.981 41.5 428.156 41.9156 428.942 42.7468C429.734 43.5779 430.253 44.8442 430.513 46.539H432.364L431.545 40.2468C431.058 40.1948 430.604 40.1169 430.169 40.0325C429.74 39.9481 429.312 39.8766 428.877 39.8182C428.448 39.7597 428 39.7013 427.545 39.6494C427.084 39.5909 426.597 39.5584 426.078 39.5584C424.701 39.5584 423.409 39.7532 422.201 40.1429C421 40.526 419.968 41.0974 419.104 41.8442C418.214 42.6169 417.519 43.5779 417.013 44.7273C416.513 45.8766 416.26 47.2273 416.26 48.7727C416.26 50.0974 416.493 51.2338 416.948 52.2013C417.409 53.1623 418 54.013 418.714 54.7597C419.435 55.4805 420.24 56.1039 421.13 56.6364C422.019 57.1623 422.89 57.6623 423.753 58.1169C424.584 58.6104 425.39 59.0844 426.162 59.539C426.942 60 427.63 60.5 428.234 61.0455C428.838 61.6234 429.325 62.2727 429.695 63.0065C430.071 63.7403 430.253 64.6104 430.253 65.6104C430.253 67.3052 429.623 68.7143 428.364 69.8312C427.097 70.9545 425.474 71.513 423.494 71.513C422.461 71.513 421.584 71.3247 420.87 70.9545C420.149 70.5779 419.545 70.0779 419.058 69.4416C418.571 68.8117 418.175 68.0779 417.877 67.2468C417.571 66.4156 417.338 65.5519 417.162 64.6623H415.312Z" fill="#2B3D4F"/>
</g>
<path fill-rule="evenodd" clip-rule="evenodd" d="M106.81 38.0484H97.445V102.744C97.445 103.162 97.279 103.563 96.9834 103.858C96.6879 104.154 96.287 104.32 95.8691 104.32C95.4511 104.32 95.0503 104.154 94.7548 103.858C94.4592 103.563 94.2932 103.162 94.2932 102.744L94.2982 5.63519C94.2816 4.14807 93.7492 2.71283 92.792 1.57467C91.9828 0.631112 90.9136 1.0553e-06 89.7223 1.0553e-06H4.80989C4.17868 -0.000418629 3.55366 0.124344 2.97098 0.367071C2.38831 0.609797 1.85956 0.965667 1.41533 1.41409C0.543975 2.28544 0 3.4904 0 4.80864V107.213C0 108.536 0.540241 109.736 1.41533 110.607C2.31458 111.51 3.53562 112.019 4.80989 112.022V112.027H101.827V112.022C104.072 112.022 106.115 111.103 107.598 109.619C109.08 108.135 110 106.095 110 103.848V41.2338C109.999 40.8152 109.916 40.4009 109.755 40.0145C109.594 39.6281 109.358 39.2773 109.061 38.982C108.766 38.685 108.415 38.4493 108.029 38.2882C107.643 38.1271 107.228 38.0439 106.81 38.0434V38.0484ZM80.8046 17.106V25.5419H13.4886V17.106H80.8046ZM11.9127 13.9554H82.3793C83.2506 13.9554 83.9552 14.6599 83.9552 15.5301V27.1178C83.9552 27.9892 83.2494 28.6938 82.3793 28.6938H11.9177C11.0463 28.6938 10.3418 27.988 10.3418 27.1178V15.5301C10.3418 14.6599 11.0476 13.9554 11.9177 13.9554H11.9127ZM57.4348 42.974C57.017 42.974 56.6163 42.8081 56.3209 42.5126C56.0255 42.2172 55.8595 41.8165 55.8595 41.3987C55.8595 40.981 56.0255 40.5803 56.3209 40.2849C56.6163 39.9894 57.017 39.8235 57.4348 39.8235H82.3793C82.7969 39.8235 83.1974 39.9894 83.4927 40.2847C83.788 40.58 83.9539 40.9805 83.9539 41.3981C83.9539 41.8158 83.788 42.2163 83.4927 42.5116C83.1974 42.8069 82.7969 42.9728 82.3793 42.9728L57.4348 42.974ZM11.9127 39.7064H46.4458C47.3171 39.7064 48.0217 40.411 48.0217 41.2811V64.4019C48.0217 65.2733 47.3159 65.9778 46.4458 65.9778L11.9177 65.9729C11.0463 65.9729 10.3418 65.2683 10.3418 64.3969V41.2774C10.3418 40.4073 11.0476 39.7027 11.9177 39.7027L11.9127 39.7064ZM57.4348 54.4734C57.017 54.4734 56.6163 54.3075 56.3209 54.0121C56.0255 53.7166 55.8595 53.3159 55.8595 52.8982C55.8595 52.4804 56.0255 52.0797 56.3209 51.7843C56.6163 51.4888 57.017 51.3229 57.4348 51.3229H82.3793C82.7969 51.3229 83.1974 51.4888 83.4927 51.7841C83.788 52.0794 83.9539 52.4799 83.9539 52.8975C83.9539 53.3152 83.788 53.7157 83.4927 54.011C83.1974 54.3063 82.7969 54.4722 82.3793 54.4722L57.4348 54.4734ZM57.4348 65.9729C57.017 65.9729 56.6163 65.8069 56.3209 65.5115C56.0255 65.216 55.8595 64.8154 55.8595 64.3976C55.8595 63.9798 56.0255 63.5791 56.3209 63.2837C56.6163 62.9883 57.017 62.8223 57.4348 62.8223H82.3793C82.797 62.8223 83.1977 62.9883 83.4932 63.2837C83.7886 63.5791 83.9545 63.9798 83.9545 64.3976C83.9545 64.8154 83.7886 65.216 83.4932 65.5115C83.1977 65.8069 82.797 65.9729 82.3793 65.9729H57.4348ZM11.9127 77.4723C11.4951 77.4723 11.0945 77.3064 10.7992 77.0111C10.5039 76.7158 10.338 76.3152 10.338 75.8976C10.338 75.48 10.5039 75.0794 10.7992 74.7841C11.0945 74.4888 11.4951 74.3229 11.9127 74.3229H82.3793C82.7969 74.3229 83.1974 74.4888 83.4927 74.7841C83.788 75.0794 83.9539 75.48 83.9539 75.8976C83.9539 76.3152 83.788 76.7158 83.4927 77.0111C83.1974 77.3064 82.7969 77.4723 82.3793 77.4723H11.9127ZM11.9127 88.9729C11.4947 88.9729 11.0939 88.8069 10.7983 88.5113C10.5028 88.2158 10.3368 87.815 10.3368 87.397C10.3368 86.9791 10.5028 86.5782 10.7983 86.2827C11.0939 85.9871 11.4947 85.8211 11.9127 85.8211H82.3793C82.7972 85.8211 83.198 85.9871 83.4936 86.2827C83.7891 86.5782 83.9552 86.9791 83.9552 87.397C83.9552 87.815 83.7891 88.2158 83.4936 88.5113C83.198 88.8069 82.7972 88.9729 82.3793 88.9729H11.9127ZM11.9127 100.472C11.4949 100.472 11.0942 100.306 10.7988 100.011C10.5034 99.7155 10.3374 99.3148 10.3374 98.897C10.3374 98.4793 10.5034 98.0786 10.7988 97.7832C11.0942 97.4877 11.4949 97.3218 11.9127 97.3218H82.3793C82.797 97.3218 83.1977 97.4877 83.4932 97.7832C83.7886 98.0786 83.9545 98.4793 83.9545 98.897C83.9545 99.3148 83.7886 99.7155 83.4932 100.011C83.1977 100.306 82.797 100.472 82.3793 100.472H11.9127ZM44.8748 56.2236V62.821H13.4873V59.5647L23.2266 52.8826L30.4912 59.0045C30.6486 59.137 30.8305 59.2372 31.0265 59.2994C31.2226 59.3616 31.429 59.3846 31.6339 59.367C31.8389 59.3494 32.0384 59.2916 32.221 59.197C32.4036 59.1023 32.5658 58.9726 32.6983 58.8153C32.8308 58.658 32.931 58.4761 32.9932 58.28C33.0553 58.0839 33.0783 57.8775 33.0607 57.6726C33.0432 57.4677 32.9854 57.2682 32.8908 57.0856C32.7961 56.9029 32.6664 56.7408 32.5091 56.6083L30.063 54.5456L34.8779 51.527L44.8798 56.2286L44.8748 56.2236ZM27.5448 52.4208L24.4179 49.7855C24.1581 49.5318 23.8186 49.3759 23.4569 49.3441C23.0952 49.3123 22.7337 49.4067 22.4337 49.6113L13.4873 55.7481V42.8458H44.8748V52.7556L35.4318 48.3167C35.1948 48.2067 34.9341 48.1575 34.6733 48.1736C34.4125 48.1897 34.1598 48.2705 33.9381 48.4088L27.5448 52.4158V52.4208Z" fill="#2B3D4F"/>
<defs>
<clipPath id="clip0_1032_10">
<rect width="300" height="34.3636" fill="white" transform="translate(134 39)"/>
</clipPath>
</defs>
</svg>
